# xmcd
#
# Track frame offsets: 
#        150
#        19994
#        42150
#        76779
#
# Disc length: 1281 seconds
#
# Revision: 0
# Processed by: cddbd v1.5.2PL0 Copyright (c) Steve Scherf et al.
# Submitted via: ExactAudioCopy v0.99pb3
#
DISCID=2304ff04
DTITLE=Herbert Grönemeyer - Lied 6 - Leb in meiner Welt
DYEAR=2007
DGENRE=Rock
TTITLE0=Lied 6 - Leb in meiner Welt
TTITLE1=Lied 6 - Leb in meiner Welt (Live 2007)
TTITLE2=Bochum (Live 2007)
TTITLE3=Lied 6 - Leb in meiner Welt (Live Video)
EXTD=
EXTT0=
EXTT1=
EXTT2=
EXTT3=
PLAYORDER=
